<?xml version="1.0" encoding="utf-8" standalone="no"?>
<!DOCTYPE svg PUBLIC "-//W3C//DTD SVG 1.1//EN"
  "http://www.w3.org/Graphics/SVG/1.1/DTD/svg11.dtd">
<svg xmlns:xlink="http://www.w3.org/1999/xlink" width="605.803125pt" height="384.806625pt" viewBox="0 0 605.803125 384.806625" xmlns="http://www.w3.org/2000/svg" version="1.1">
 <metadata>
  <rdf:RDF xmlns:dc="http://purl.org/dc/elements/1.1/" xmlns:cc="http://creativecommons.org/ns#" xmlns:rdf="http://www.w3.org/1999/02/22-rdf-syntax-ns#">
   <cc:Work>
    <dc:type rdf:resource="http://purl.org/dc/dcmitype/StillImage"/>
    <dc:date>2022-06-17T12:48:06.491993</dc:date>
    <dc:format>image/svg+xml</dc:format>
    <dc:creator>
     <cc:Agent>
      <dc:title>Matplotlib v3.5.2, https://matplotlib.org/</dc:title>
     </cc:Agent>
    </dc:creator>
   </cc:Work>
  </rdf:RDF>
 </metadata>
 <defs>
  <style type="text/css">*{stroke-linejoin: round; stroke-linecap: butt}</style>
 </defs>
 <g id="figure_1">
  <g id="patch_1">
   <path d="M 0 384.806625 
L 605.803125 384.806625 
L 605.803125 0 
L 0 0 
L 0 384.806625 
z
" style="fill: none"/>
  </g>
  <g id="axes_1">
   <g id="patch_2">
    <path d="M 40.603125 294.118125 
L 598.603125 294.118125 
L 598.603125 22.318125 
L 40.603125 22.318125 
z
" style="fill: #ffffff"/>
   </g>
   <g id="patch_3">
    <path d="M 65.966761 294.118125 
L 150.512216 294.118125 
L 150.512216 294.118125 
L 65.966761 294.118125 
z
" clip-path="url(#pf183f16c99)" style="fill: #1f77b4"/>
   </g>
   <g id="patch_4">
    <path d="M 171.64858 294.118125 
L 256.194034 294.118125 
L 256.194034 35.260982 
L 171.64858 35.260982 
z
" clip-path="url(#pf183f16c99)" style="fill: #1f77b4"/>
   </g>
   <g id="patch_5">
    <path d="M 277.330398 294.118125 
L 361.875852 294.118125 
L 361.875852 239.621884 
L 277.330398 239.621884 
z
" clip-path="url(#pf183f16c99)" style="fill: #1f77b4"/>
   </g>
   <g id="patch_6">
    <path d="M 383.012216 294.118125 
L 467.55767 294.118125 
L 467.55767 103.381283 
L 383.012216 103.381283 
z
" clip-path="url(#pf183f16c99)" style="fill: #1f77b4"/>
   </g>
   <g id="patch_7">
    <path d="M 488.694034 294.118125 
L 573.239489 294.118125 
L 573.239489 294.118125 
L 488.694034 294.118125 
z
" clip-path="url(#pf183f16c99)" style="fill: #1f77b4"/>
   </g>
   <g id="matplotlib.axis_1">
    <g id="xtick_1">
     <g id="line2d_1">
      <defs>
       <path id="m9e8bd8f674" d="M 0 0 
L 0 3.5 
" style="stroke: #000000; stroke-width: 0.8"/>
      </defs>
      <g>
       <use xlink:href="#m9e8bd8f674" x="108.239489" y="294.118125" style="stroke: #000000; stroke-width: 0.8"/>
      </g>
     </g>
     <g id="text_1">
      <!-- Africa (total) -->
      <g transform="translate(77.05902 308.716563)scale(0.1 -0.1)">
       <defs>
        <path id="DejaVuSans-41" d="M 2188 4044 
L 1331 1722 
L 3047 1722 
L 2188 4044 
z
M 1831 4666 
L 2547 4666 
L 4325 0 
L 3669 0 
L 3244 1197 
L 1141 1197 
L 716 0 
L 50 0 
L 1831 4666 
z
" transform="scale(0.015625)"/>
        <path id="DejaVuSans-66" d="M 2375 4863 
L 2375 4384 
L 1825 4384 
Q 1516 4384 1395 4259 
Q 1275 4134 1275 3809 
L 1275 3500 
L 2222 3500 
L 2222 3053 
L 1275 3053 
L 1275 0 
L 697 0 
L 697 3053 
L 147 3053 
L 147 3500 
L 697 3500 
L 697 3744 
Q 697 4328 969 4595 
Q 1241 4863 1831 4863 
L 2375 4863 
z
" transform="scale(0.015625)"/>
        <path id="DejaVuSans-72" d="M 2631 2963 
Q 2534 3019 2420 3045 
Q 2306 3072 2169 3072 
Q 1681 3072 1420 2755 
Q 1159 2438 1159 1844 
L 1159 0 
L 581 0 
L 581 3500 
L 1159 3500 
L 1159 2956 
Q 1341 3275 1631 3429 
Q 1922 3584 2338 3584 
Q 2397 3584 2469 3576 
Q 2541 3569 2628 3553 
L 2631 2963 
z
" transform="scale(0.015625)"/>
        <path id="DejaVuSans-69" d="M 603 3500 
L 1178 3500 
L 1178 0 
L 603 0 
L 603 3500 
z
M 603 4863 
L 1178 4863 
L 1178 4134 
L 603 4134 
L 603 4863 
z
" transform="scale(0.015625)"/>
        <path id="DejaVuSans-63" d="M 3122 3366 
L 3122 2828 
Q 2878 2963 2633 3030 
Q 2388 3097 2138 3097 
Q 1578 3097 1268 2742 
Q 959 2388 959 1747 
Q 959 1106 1268 751 
Q 1578 397 2138 397 
Q 2388 397 2633 464 
Q 2878 531 3122 666 
L 3122 134 
Q 2881 22 2623 -34 
Q 2366 -91 2075 -91 
Q 1284 -91 818 406 
Q 353 903 353 1747 
Q 353 2603 823 3093 
Q 1294 3584 2113 3584 
Q 2378 3584 2631 3529 
Q 2884 3475 3122 3366 
z
" transform="scale(0.015625)"/>
        <path id="DejaVuSans-61" d="M 2194 1759 
Q 1497 1759 1228 1600 
Q 959 1441 959 1056 
Q 959 750 1161 570 
Q 1363 391 1709 391 
Q 2188 391 2477 730 
Q 2766 1069 2766 1631 
L 2766 1759 
L 2194 1759 
z
M 3341 1997 
L 3341 0 
L 2766 0 
L 2766 531 
Q 2569 213 2275 61 
Q 1981 -91 1556 -91 
Q 1019 -91 701 211 
Q 384 513 384 1019 
Q 384 1609 779 1909 
Q 1175 2209 1959 2209 
L 2766 2209 
L 2766 2266 
Q 2766 2663 2505 2880 
Q 2244 3097 1772 3097 
Q 1472 3097 1187 3025 
Q 903 2953 641 2809 
L 641 3341 
Q 956 3463 1253 3523 
Q 1550 3584 1831 3584 
Q 2591 3584 2966 3190 
Q 3341 2797 3341 1997 
z
" transform="scale(0.015625)"/>
        <path id="DejaVuSans-20" transform="scale(0.015625)"/>
        <path id="DejaVuSans-28" d="M 1984 4856 
Q 1566 4138 1362 3434 
Q 1159 2731 1159 2009 
Q 1159 1288 1364 580 
Q 1569 -128 1984 -844 
L 1484 -844 
Q 1016 -109 783 600 
Q 550 1309 550 2009 
Q 550 2706 781 3412 
Q 1013 4119 1484 4856 
L 1984 4856 
z
" transform="scale(0.015625)"/>
        <path id="DejaVuSans-74" d="M 1172 4494 
L 1172 3500 
L 2356 3500 
L 2356 3053 
L 1172 3053 
L 1172 1153 
Q 1172 725 1289 603 
Q 1406 481 1766 481 
L 2356 481 
L 2356 0 
L 1766 0 
Q 1100 0 847 248 
Q 594 497 594 1153 
L 594 3053 
L 172 3053 
L 172 3500 
L 594 3500 
L 594 4494 
L 1172 4494 
z
" transform="scale(0.015625)"/>
        <path id="DejaVuSans-6f" d="M 1959 3097 
Q 1497 3097 1228 2736 
Q 959 2375 959 1747 
Q 959 1119 1226 758 
Q 1494 397 1959 397 
Q 2419 397 2687 759 
Q 2956 1122 2956 1747 
Q 2956 2369 2687 2733 
Q 2419 3097 1959 3097 
z
M 1959 3584 
Q 2709 3584 3137 3096 
Q 3566 2609 3566 1747 
Q 3566 888 3137 398 
Q 2709 -91 1959 -91 
Q 1206 -91 779 398 
Q 353 888 353 1747 
Q 353 2609 779 3096 
Q 1206 3584 1959 3584 
z
" transform="scale(0.015625)"/>
        <path id="DejaVuSans-6c" d="M 603 4863 
L 1178 4863 
L 1178 0 
L 603 0 
L 603 4863 
z
" transform="scale(0.015625)"/>
        <path id="DejaVuSans-29" d="M 513 4856 
L 1013 4856 
Q 1481 4119 1714 3412 
Q 1947 2706 1947 2009 
Q 1947 1309 1714 600 
Q 1481 -109 1013 -844 
L 513 -844 
Q 928 -128 1133 580 
Q 1338 1288 1338 2009 
Q 1338 2731 1133 3434 
Q 928 4138 513 4856 
z
" transform="scale(0.015625)"/>
       </defs>
       <use xlink:href="#DejaVuSans-41"/>
       <use xlink:href="#DejaVuSans-66" x="64.783203"/>
       <use xlink:href="#DejaVuSans-72" x="99.988281"/>
       <use xlink:href="#DejaVuSans-69" x="141.101562"/>
       <use xlink:href="#DejaVuSans-63" x="168.884766"/>
       <use xlink:href="#DejaVuSans-61" x="223.865234"/>
       <use xlink:href="#DejaVuSans-20" x="285.144531"/>
       <use xlink:href="#DejaVuSans-28" x="316.931641"/>
       <use xlink:href="#DejaVuSans-74" x="355.945312"/>
       <use xlink:href="#DejaVuSans-6f" x="395.154297"/>
       <use xlink:href="#DejaVuSans-74" x="456.335938"/>
       <use xlink:href="#DejaVuSans-61" x="495.544922"/>
       <use xlink:href="#DejaVuSans-6c" x="556.824219"/>
       <use xlink:href="#DejaVuSans-29" x="584.607422"/>
      </g>
     </g>
    </g>
    <g id="xtick_2">
     <g id="line2d_2">
      <g>
       <use xlink:href="#m9e8bd8f674" x="213.921307" y="294.118125" style="stroke: #000000; stroke-width: 0.8"/>
      </g>
     </g>
     <g id="text_2">
      <!-- America (total) -->
      <g transform="translate(176.372869 308.716563)scale(0.1 -0.1)">
       <defs>
        <path id="DejaVuSans-6d" d="M 3328 2828 
Q 3544 3216 3844 3400 
Q 4144 3584 4550 3584 
Q 5097 3584 5394 3201 
Q 5691 2819 5691 2113 
L 5691 0 
L 5113 0 
L 5113 2094 
Q 5113 2597 4934 2840 
Q 4756 3084 4391 3084 
Q 3944 3084 3684 2787 
Q 3425 2491 3425 1978 
L 3425 0 
L 2847 0 
L 2847 2094 
Q 2847 2600 2669 2842 
Q 2491 3084 2119 3084 
Q 1678 3084 1418 2786 
Q 1159 2488 1159 1978 
L 1159 0 
L 581 0 
L 581 3500 
L 1159 3500 
L 1159 2956 
Q 1356 3278 1631 3431 
Q 1906 3584 2284 3584 
Q 2666 3584 2933 3390 
Q 3200 3197 3328 2828 
z
" transform="scale(0.015625)"/>
        <path id="DejaVuSans-65" d="M 3597 1894 
L 3597 1613 
L 953 1613 
Q 991 1019 1311 708 
Q 1631 397 2203 397 
Q 2534 397 2845 478 
Q 3156 559 3463 722 
L 3463 178 
Q 3153 47 2828 -22 
Q 2503 -91 2169 -91 
Q 1331 -91 842 396 
Q 353 884 353 1716 
Q 353 2575 817 3079 
Q 1281 3584 2069 3584 
Q 2775 3584 3186 3129 
Q 3597 2675 3597 1894 
z
M 3022 2063 
Q 3016 2534 2758 2815 
Q 2500 3097 2075 3097 
Q 1594 3097 1305 2825 
Q 1016 2553 972 2059 
L 3022 2063 
z
" transform="scale(0.015625)"/>
       </defs>
       <use xlink:href="#DejaVuSans-41"/>
       <use xlink:href="#DejaVuSans-6d" x="68.408203"/>
       <use xlink:href="#DejaVuSans-65" x="165.820312"/>
       <use xlink:href="#DejaVuSans-72" x="227.34375"/>
       <use xlink:href="#DejaVuSans-69" x="268.457031"/>
       <use xlink:href="#DejaVuSans-63" x="296.240234"/>
       <use xlink:href="#DejaVuSans-61" x="351.220703"/>
       <use xlink:href="#DejaVuSans-20" x="412.5"/>
       <use xlink:href="#DejaVuSans-28" x="444.287109"/>
       <use xlink:href="#DejaVuSans-74" x="483.300781"/>
       <use xlink:href="#DejaVuSans-6f" x="522.509766"/>
       <use xlink:href="#DejaVuSans-74" x="583.691406"/>
       <use xlink:href="#DejaVuSans-61" x="622.900391"/>
       <use xlink:href="#DejaVuSans-6c" x="684.179688"/>
       <use xlink:href="#DejaVuSans-29" x="711.962891"/>
      </g>
     </g>
    </g>
    <g id="xtick_3">
     <g id="line2d_3">
      <g>
       <use xlink:href="#m9e8bd8f674" x="319.603125" y="294.118125" style="stroke: #000000; stroke-width: 0.8"/>
      </g>
     </g>
     <g id="text_3">
      <!-- Asia (total) -->
      <g transform="translate(292.201562 308.716563)scale(0.1 -0.1)">
       <defs>
        <path id="DejaVuSans-73" d="M 2834 3397 
L 2834 2853 
Q 2591 2978 2328 3040 
Q 2066 3103 1784 3103 
Q 1356 3103 1142 2972 
Q 928 2841 928 2578 
Q 928 2378 1081 2264 
Q 1234 2150 1697 2047 
L 1894 2003 
Q 2506 1872 2764 1633 
Q 3022 1394 3022 966 
Q 3022 478 2636 193 
Q 2250 -91 1575 -91 
Q 1294 -91 989 -36 
Q 684 19 347 128 
L 347 722 
Q 666 556 975 473 
Q 1284 391 1588 391 
Q 1994 391 2212 530 
Q 2431 669 2431 922 
Q 2431 1156 2273 1281 
Q 2116 1406 1581 1522 
L 1381 1569 
Q 847 1681 609 1914 
Q 372 2147 372 2553 
Q 372 3047 722 3315 
Q 1072 3584 1716 3584 
Q 2034 3584 2315 3537 
Q 2597 3491 2834 3397 
z
" transform="scale(0.015625)"/>
       </defs>
       <use xlink:href="#DejaVuSans-41"/>
       <use xlink:href="#DejaVuSans-73" x="68.408203"/>
       <use xlink:href="#DejaVuSans-69" x="120.507812"/>
       <use xlink:href="#DejaVuSans-61" x="148.291016"/>
       <use xlink:href="#DejaVuSans-20" x="209.570312"/>
       <use xlink:href="#DejaVuSans-28" x="241.357422"/>
       <use xlink:href="#DejaVuSans-74" x="280.371094"/>
       <use xlink:href="#DejaVuSans-6f" x="319.580078"/>
       <use xlink:href="#DejaVuSans-74" x="380.761719"/>
       <use xlink:href="#DejaVuSans-61" x="419.970703"/>
       <use xlink:href="#DejaVuSans-6c" x="481.25"/>
       <use xlink:href="#DejaVuSans-29" x="509.033203"/>
      </g>
     </g>
    </g>
    <g id="xtick_4">
     <g id="line2d_4">
      <g>
       <use xlink:href="#m9e8bd8f674" x="425.284943" y="294.118125" style="stroke: #000000; stroke-width: 0.8"/>
      </g>
     </g>
     <g id="text_4">
      <!-- Europe (total) -->
      <g transform="translate(390.780256 308.716563)scale(0.1 -0.1)">
       <defs>
        <path id="DejaVuSans-45" d="M 628 4666 
L 3578 4666 
L 3578 4134 
L 1259 4134 
L 1259 2753 
L 3481 2753 
L 3481 2222 
L 1259 2222 
L 1259 531 
L 3634 531 
L 3634 0 
L 628 0 
L 628 4666 
z
" transform="scale(0.015625)"/>
        <path id="DejaVuSans-75" d="M 544 1381 
L 544 3500 
L 1119 3500 
L 1119 1403 
Q 1119 906 1312 657 
Q 1506 409 1894 409 
Q 2359 409 2629 706 
Q 2900 1003 2900 1516 
L 2900 3500 
L 3475 3500 
L 3475 0 
L 2900 0 
L 2900 538 
Q 2691 219 2414 64 
Q 2138 -91 1772 -91 
Q 1169 -91 856 284 
Q 544 659 544 1381 
z
M 1991 3584 
L 1991 3584 
z
" transform="scale(0.015625)"/>
        <path id="DejaVuSans-70" d="M 1159 525 
L 1159 -1331 
L 581 -1331 
L 581 3500 
L 1159 3500 
L 1159 2969 
Q 1341 3281 1617 3432 
Q 1894 3584 2278 3584 
Q 2916 3584 3314 3078 
Q 3713 2572 3713 1747 
Q 3713 922 3314 415 
Q 2916 -91 2278 -91 
Q 1894 -91 1617 61 
Q 1341 213 1159 525 
z
M 3116 1747 
Q 3116 2381 2855 2742 
Q 2594 3103 2138 3103 
Q 1681 3103 1420 2742 
Q 1159 2381 1159 1747 
Q 1159 1113 1420 752 
Q 1681 391 2138 391 
Q 2594 391 2855 752 
Q 3116 1113 3116 1747 
z
" transform="scale(0.015625)"/>
       </defs>
       <use xlink:href="#DejaVuSans-45"/>
       <use xlink:href="#DejaVuSans-75" x="63.183594"/>
       <use xlink:href="#DejaVuSans-72" x="126.5625"/>
       <use xlink:href="#DejaVuSans-6f" x="165.425781"/>
       <use xlink:href="#DejaVuSans-70" x="226.607422"/>
       <use xlink:href="#DejaVuSans-65" x="290.083984"/>
       <use xlink:href="#DejaVuSans-20" x="351.607422"/>
       <use xlink:href="#DejaVuSans-28" x="383.394531"/>
       <use xlink:href="#DejaVuSans-74" x="422.408203"/>
       <use xlink:href="#DejaVuSans-6f" x="461.617188"/>
       <use xlink:href="#DejaVuSans-74" x="522.798828"/>
       <use xlink:href="#DejaVuSans-61" x="562.007812"/>
       <use xlink:href="#DejaVuSans-6c" x="623.287109"/>
       <use xlink:href="#DejaVuSans-29" x="651.070312"/>
      </g>
     </g>
    </g>
    <g id="xtick_5">
     <g id="line2d_5">
      <g>
       <use xlink:href="#m9e8bd8f674" x="530.966761" y="294.118125" style="stroke: #000000; stroke-width: 0.8"/>
      </g>
     </g>
     <g id="text_5">
      <!-- Oceania (total) -->
      <g transform="translate(493.595668 308.716563)scale(0.1 -0.1)">
       <defs>
        <path id="DejaVuSans-4f" d="M 2522 4238 
Q 1834 4238 1429 3725 
Q 1025 3213 1025 2328 
Q 1025 1447 1429 934 
Q 1834 422 2522 422 
Q 3209 422 3611 934 
Q 4013 1447 4013 2328 
Q 4013 3213 3611 3725 
Q 3209 4238 2522 4238 
z
M 2522 4750 
Q 3503 4750 4090 4092 
Q 4678 3434 4678 2328 
Q 4678 1225 4090 567 
Q 3503 -91 2522 -91 
Q 1538 -91 948 565 
Q 359 1222 359 2328 
Q 359 3434 948 4092 
Q 1538 4750 2522 4750 
z
" transform="scale(0.015625)"/>
        <path id="DejaVuSans-6e" d="M 3513 2113 
L 3513 0 
L 2938 0 
L 2938 2094 
Q 2938 2591 2744 2837 
Q 2550 3084 2163 3084 
Q 1697 3084 1428 2787 
Q 1159 2491 1159 1978 
L 1159 0 
L 581 0 
L 581 3500 
L 1159 3500 
L 1159 2956 
Q 1366 3272 1645 3428 
Q 1925 3584 2291 3584 
Q 2894 3584 3203 3211 
Q 3513 2838 3513 2113 
z
" transform="scale(0.015625)"/>
       </defs>
       <use xlink:href="#DejaVuSans-4f"/>
       <use xlink:href="#DejaVuSans-63" x="78.710938"/>
       <use xlink:href="#DejaVuSans-65" x="133.691406"/>
       <use xlink:href="#DejaVuSans-61" x="195.214844"/>
       <use xlink:href="#DejaVuSans-6e" x="256.494141"/>
       <use xlink:href="#DejaVuSans-69" x="319.873047"/>
       <use xlink:href="#DejaVuSans-61" x="347.65625"/>
       <use xlink:href="#DejaVuSans-20" x="408.935547"/>
       <use xlink:href="#DejaVuSans-28" x="440.722656"/>
       <use xlink:href="#DejaVuSans-74" x="479.736328"/>
       <use xlink:href="#DejaVuSans-6f" x="518.945312"/>
       <use xlink:href="#DejaVuSans-74" x="580.126953"/>
       <use xlink:href="#DejaVuSans-61" x="619.335938"/>
       <use xlink:href="#DejaVuSans-6c" x="680.615234"/>
       <use xlink:href="#DejaVuSans-29" x="708.398438"/>
      </g>
     </g>
    </g>
    <g id="text_6">
     <!-- Kontinent -->
     <g transform="translate(295.622656 322.394688)scale(0.1 -0.1)">
      <defs>
       <path id="DejaVuSans-4b" d="M 628 4666 
L 1259 4666 
L 1259 2694 
L 3353 4666 
L 4166 4666 
L 1850 2491 
L 4331 0 
L 3500 0 
L 1259 2247 
L 1259 0 
L 628 0 
L 628 4666 
z
" transform="scale(0.015625)"/>
      </defs>
      <use xlink:href="#DejaVuSans-4b"/>
      <use xlink:href="#DejaVuSans-6f" x="60.576172"/>
      <use xlink:href="#DejaVuSans-6e" x="121.757812"/>
      <use xlink:href="#DejaVuSans-74" x="185.136719"/>
      <use xlink:href="#DejaVuSans-69" x="224.345703"/>
      <use xlink:href="#DejaVuSans-6e" x="252.128906"/>
      <use xlink:href="#DejaVuSans-65" x="315.507812"/>
      <use xlink:href="#DejaVuSans-6e" x="377.03125"/>
      <use xlink:href="#DejaVuSans-74" x="440.410156"/>
     </g>
    </g>
   </g>
   <g id="matplotlib.axis_2">
    <g id="ytick_1">
     <g id="line2d_6">
      <defs>
       <path id="m3c216bf379" d="M 0 0 
L -3.5 0 
" style="stroke: #000000; stroke-width: 0.8"/>
      </defs>
      <g>
       <use xlink:href="#m3c216bf379" x="40.603125" y="294.118125" style="stroke: #000000; stroke-width: 0.8"/>
      </g>
     </g>
     <g id="text_7">
      <!-- 0 -->
      <g transform="translate(27.240625 297.917344)scale(0.1 -0.1)">
       <defs>
        <path id="DejaVuSans-30" d="M 2034 4250 
Q 1547 4250 1301 3770 
Q 1056 3291 1056 2328 
Q 1056 1369 1301 889 
Q 1547 409 2034 409 
Q 2525 409 2770 889 
Q 3016 1369 3016 2328 
Q 3016 3291 2770 3770 
Q 2525 4250 2034 4250 
z
M 2034 4750 
Q 2819 4750 3233 4129 
Q 3647 3509 3647 2328 
Q 3647 1150 3233 529 
Q 2819 -91 2034 -91 
Q 1250 -91 836 529 
Q 422 1150 422 2328 
Q 422 3509 836 4129 
Q 1250 4750 2034 4750 
z
" transform="scale(0.015625)"/>
       </defs>
       <use xlink:href="#DejaVuSans-30"/>
      </g>
     </g>
    </g>
    <g id="ytick_2">
     <g id="line2d_7">
      <g>
       <use xlink:href="#m3c216bf379" x="40.603125" y="260.057975" style="stroke: #000000; stroke-width: 0.8"/>
      </g>
     </g>
     <g id="text_8">
      <!-- 5 -->
      <g transform="translate(27.240625 263.857193)scale(0.1 -0.1)">
       <defs>
        <path id="DejaVuSans-35" d="M 691 4666 
L 3169 4666 
L 3169 4134 
L 1269 4134 
L 1269 2991 
Q 1406 3038 1543 3061 
Q 1681 3084 1819 3084 
Q 2600 3084 3056 2656 
Q 3513 2228 3513 1497 
Q 3513 744 3044 326 
Q 2575 -91 1722 -91 
Q 1428 -91 1123 -41 
Q 819 9 494 109 
L 494 744 
Q 775 591 1075 516 
Q 1375 441 1709 441 
Q 2250 441 2565 725 
Q 2881 1009 2881 1497 
Q 2881 1984 2565 2268 
Q 2250 2553 1709 2553 
Q 1456 2553 1204 2497 
Q 953 2441 691 2322 
L 691 4666 
z
" transform="scale(0.015625)"/>
       </defs>
       <use xlink:href="#DejaVuSans-35"/>
      </g>
     </g>
    </g>
    <g id="ytick_3">
     <g id="line2d_8">
      <g>
       <use xlink:href="#m3c216bf379" x="40.603125" y="225.997824" style="stroke: #000000; stroke-width: 0.8"/>
      </g>
     </g>
     <g id="text_9">
      <!-- 10 -->
      <g transform="translate(20.878125 229.797043)scale(0.1 -0.1)">
       <defs>
        <path id="DejaVuSans-31" d="M 794 531 
L 1825 531 
L 1825 4091 
L 703 3866 
L 703 4441 
L 1819 4666 
L 2450 4666 
L 2450 531 
L 3481 531 
L 3481 0 
L 794 0 
L 794 531 
z
" transform="scale(0.015625)"/>
       </defs>
       <use xlink:href="#DejaVuSans-31"/>
       <use xlink:href="#DejaVuSans-30" x="63.623047"/>
      </g>
     </g>
    </g>
    <g id="ytick_4">
     <g id="line2d_9">
      <g>
       <use xlink:href="#m3c216bf379" x="40.603125" y="191.937674" style="stroke: #000000; stroke-width: 0.8"/>
      </g>
     </g>
     <g id="text_10">
      <!-- 15 -->
      <g transform="translate(20.878125 195.736893)scale(0.1 -0.1)">
       <use xlink:href="#DejaVuSans-31"/>
       <use xlink:href="#DejaVuSans-35" x="63.623047"/>
      </g>
     </g>
    </g>
    <g id="ytick_5">
     <g id="line2d_10">
      <g>
       <use xlink:href="#m3c216bf379" x="40.603125" y="157.877523" style="stroke: #000000; stroke-width: 0.8"/>
      </g>
     </g>
     <g id="text_11">
      <!-- 20 -->
      <g transform="translate(20.878125 161.676742)scale(0.1 -0.1)">
       <defs>
        <path id="DejaVuSans-32" d="M 1228 531 
L 3431 531 
L 3431 0 
L 469 0 
L 469 531 
Q 828 903 1448 1529 
Q 2069 2156 2228 2338 
Q 2531 2678 2651 2914 
Q 2772 3150 2772 3378 
Q 2772 3750 2511 3984 
Q 2250 4219 1831 4219 
Q 1534 4219 1204 4116 
Q 875 4013 500 3803 
L 500 4441 
Q 881 4594 1212 4672 
Q 1544 4750 1819 4750 
Q 2544 4750 2975 4387 
Q 3406 4025 3406 3419 
Q 3406 3131 3298 2873 
Q 3191 2616 2906 2266 
Q 2828 2175 2409 1742 
Q 1991 1309 1228 531 
z
" transform="scale(0.015625)"/>
       </defs>
       <use xlink:href="#DejaVuSans-32"/>
       <use xlink:href="#DejaVuSans-30" x="63.623047"/>
      </g>
     </g>
    </g>
    <g id="ytick_6">
     <g id="line2d_11">
      <g>
       <use xlink:href="#m3c216bf379" x="40.603125" y="123.817373" style="stroke: #000000; stroke-width: 0.8"/>
      </g>
     </g>
     <g id="text_12">
      <!-- 25 -->
      <g transform="translate(20.878125 127.616592)scale(0.1 -0.1)">
       <use xlink:href="#DejaVuSans-32"/>
       <use xlink:href="#DejaVuSans-35" x="63.623047"/>
      </g>
     </g>
    </g>
    <g id="ytick_7">
     <g id="line2d_12">
      <g>
       <use xlink:href="#m3c216bf379" x="40.603125" y="89.757223" style="stroke: #000000; stroke-width: 0.8"/>
      </g>
     </g>
     <g id="text_13">
      <!-- 30 -->
      <g transform="translate(20.878125 93.556441)scale(0.1 -0.1)">
       <defs>
        <path id="DejaVuSans-33" d="M 2597 2516 
Q 3050 2419 3304 2112 
Q 3559 1806 3559 1356 
Q 3559 666 3084 287 
Q 2609 -91 1734 -91 
Q 1441 -91 1130 -33 
Q 819 25 488 141 
L 488 750 
Q 750 597 1062 519 
Q 1375 441 1716 441 
Q 2309 441 2620 675 
Q 2931 909 2931 1356 
Q 2931 1769 2642 2001 
Q 2353 2234 1838 2234 
L 1294 2234 
L 1294 2753 
L 1863 2753 
Q 2328 2753 2575 2939 
Q 2822 3125 2822 3475 
Q 2822 3834 2567 4026 
Q 2313 4219 1838 4219 
Q 1578 4219 1281 4162 
Q 984 4106 628 3988 
L 628 4550 
Q 988 4650 1302 4700 
Q 1616 4750 1894 4750 
Q 2613 4750 3031 4423 
Q 3450 4097 3450 3541 
Q 3450 3153 3228 2886 
Q 3006 2619 2597 2516 
z
" transform="scale(0.015625)"/>
       </defs>
       <use xlink:href="#DejaVuSans-33"/>
       <use xlink:href="#DejaVuSans-30" x="63.623047"/>
      </g>
     </g>
    </g>
    <g id="ytick_8">
     <g id="line2d_13">
      <g>
       <use xlink:href="#m3c216bf379" x="40.603125" y="55.697072" style="stroke: #000000; stroke-width: 0.8"/>
      </g>
     </g>
     <g id="text_14">
      <!-- 35 -->
      <g transform="translate(20.878125 59.496291)scale(0.1 -0.1)">
       <use xlink:href="#DejaVuSans-33"/>
       <use xlink:href="#DejaVuSans-35" x="63.623047"/>
      </g>
     </g>
    </g>
    <g id="text_15">
     <!-- Anzahl -->
     <g transform="translate(14.798437 175.053281)rotate(-90)scale(0.1 -0.1)">
      <defs>
       <path id="DejaVuSans-7a" d="M 353 3500 
L 3084 3500 
L 3084 2975 
L 922 459 
L 3084 459 
L 3084 0 
L 275 0 
L 275 525 
L 2438 3041 
L 353 3041 
L 353 3500 
z
" transform="scale(0.015625)"/>
       <path id="DejaVuSans-68" d="M 3513 2113 
L 3513 0 
L 2938 0 
L 2938 2094 
Q 2938 2591 2744 2837 
Q 2550 3084 2163 3084 
Q 1697 3084 1428 2787 
Q 1159 2491 1159 1978 
L 1159 0 
L 581 0 
L 581 4863 
L 1159 4863 
L 1159 2956 
Q 1366 3272 1645 3428 
Q 1925 3584 2291 3584 
Q 2894 3584 3203 3211 
Q 3513 2838 3513 2113 
z
" transform="scale(0.015625)"/>
      </defs>
      <use xlink:href="#DejaVuSans-41"/>
      <use xlink:href="#DejaVuSans-6e" x="68.408203"/>
      <use xlink:href="#DejaVuSans-7a" x="131.787109"/>
      <use xlink:href="#DejaVuSans-61" x="184.277344"/>
      <use xlink:href="#DejaVuSans-68" x="245.556641"/>
      <use xlink:href="#DejaVuSans-6c" x="308.935547"/>
     </g>
    </g>
   </g>
   <g id="patch_8">
    <path d="M 40.603125 294.118125 
L 40.603125 22.318125 
" style="fill: none; stroke: #000000; stroke-width: 0.8; stroke-linejoin: miter; stroke-linecap: square"/>
   </g>
   <g id="patch_9">
    <path d="M 598.603125 294.118125 
L 598.603125 22.318125 
" style="fill: none; stroke: #000000; stroke-width: 0.8; stroke-linejoin: miter; stroke-linecap: square"/>
   </g>
   <g id="patch_10">
    <path d="M 40.603125 294.118125 
L 598.603125 294.118125 
" style="fill: none; stroke: #000000; stroke-width: 0.8; stroke-linejoin: miter; stroke-linecap: square"/>
   </g>
   <g id="patch_11">
    <path d="M 40.603125 22.318125 
L 598.603125 22.318125 
" style="fill: none; stroke: #000000; stroke-width: 0.8; stroke-linejoin: miter; stroke-linecap: square"/>
   </g>
   <g id="text_16">
    <!-- 0 -->
    <g transform="translate(105.058239 292.038438)scale(0.1 -0.1)">
     <use xlink:href="#DejaVuSans-30"/>
    </g>
   </g>
   <g id="text_17">
    <!-- 38 -->
    <g transform="translate(207.558807 33.181295)scale(0.1 -0.1)">
     <defs>
      <path id="DejaVuSans-38" d="M 2034 2216 
Q 1584 2216 1326 1975 
Q 1069 1734 1069 1313 
Q 1069 891 1326 650 
Q 1584 409 2034 409 
Q 2484 409 2743 651 
Q 3003 894 3003 1313 
Q 3003 1734 2745 1975 
Q 2488 2216 2034 2216 
z
M 1403 2484 
Q 997 2584 770 2862 
Q 544 3141 544 3541 
Q 544 4100 942 4425 
Q 1341 4750 2034 4750 
Q 2731 4750 3128 4425 
Q 3525 4100 3525 3541 
Q 3525 3141 3298 2862 
Q 3072 2584 2669 2484 
Q 3125 2378 3379 2068 
Q 3634 1759 3634 1313 
Q 3634 634 3220 271 
Q 2806 -91 2034 -91 
Q 1263 -91 848 271 
Q 434 634 434 1313 
Q 434 1759 690 2068 
Q 947 2378 1403 2484 
z
M 1172 3481 
Q 1172 3119 1398 2916 
Q 1625 2713 2034 2713 
Q 2441 2713 2670 2916 
Q 2900 3119 2900 3481 
Q 2900 3844 2670 4047 
Q 2441 4250 2034 4250 
Q 1625 4250 1398 4047 
Q 1172 3844 1172 3481 
z
" transform="scale(0.015625)"/>
     </defs>
     <use xlink:href="#DejaVuSans-33"/>
     <use xlink:href="#DejaVuSans-38" x="63.623047"/>
    </g>
   </g>
   <g id="text_18">
    <!-- 8 -->
    <g transform="translate(316.421875 237.542197)scale(0.1 -0.1)">
     <use xlink:href="#DejaVuSans-38"/>
    </g>
   </g>
   <g id="text_19">
    <!-- 28 -->
    <g transform="translate(418.922443 101.301595)scale(0.1 -0.1)">
     <use xlink:href="#DejaVuSans-32"/>
     <use xlink:href="#DejaVuSans-38" x="63.623047"/>
    </g>
   </g>
   <g id="text_20">
    <!-- 0 -->
    <g transform="translate(527.785511 292.038438)scale(0.1 -0.1)">
     <use xlink:href="#DejaVuSans-30"/>
    </g>
   </g>
   <g id="text_21">
    <!-- Anzahl höchster 14 Tagesraten im Vergleich zu allen Kontinenten -->
    <g transform="translate(124.463437 16.318125)scale(0.12 -0.12)">
     <defs>
      <path id="DejaVuSans-f6" d="M 1959 3097 
Q 1497 3097 1228 2736 
Q 959 2375 959 1747 
Q 959 1119 1226 758 
Q 1494 397 1959 397 
Q 2419 397 2687 759 
Q 2956 1122 2956 1747 
Q 2956 2369 2687 2733 
Q 2419 3097 1959 3097 
z
M 1959 3584 
Q 2709 3584 3137 3096 
Q 3566 2609 3566 1747 
Q 3566 888 3137 398 
Q 2709 -91 1959 -91 
Q 1206 -91 779 398 
Q 353 888 353 1747 
Q 353 2609 779 3096 
Q 1206 3584 1959 3584 
z
M 2254 4850 
L 2888 4850 
L 2888 4219 
L 2254 4219 
L 2254 4850 
z
M 1032 4850 
L 1666 4850 
L 1666 4219 
L 1032 4219 
L 1032 4850 
z
" transform="scale(0.015625)"/>
      <path id="DejaVuSans-34" d="M 2419 4116 
L 825 1625 
L 2419 1625 
L 2419 4116 
z
M 2253 4666 
L 3047 4666 
L 3047 1625 
L 3713 1625 
L 3713 1100 
L 3047 1100 
L 3047 0 
L 2419 0 
L 2419 1100 
L 313 1100 
L 313 1709 
L 2253 4666 
z
" transform="scale(0.015625)"/>
      <path id="DejaVuSans-54" d="M -19 4666 
L 3928 4666 
L 3928 4134 
L 2272 4134 
L 2272 0 
L 1638 0 
L 1638 4134 
L -19 4134 
L -19 4666 
z
" transform="scale(0.015625)"/>
      <path id="DejaVuSans-67" d="M 2906 1791 
Q 2906 2416 2648 2759 
Q 2391 3103 1925 3103 
Q 1463 3103 1205 2759 
Q 947 2416 947 1791 
Q 947 1169 1205 825 
Q 1463 481 1925 481 
Q 2391 481 2648 825 
Q 2906 1169 2906 1791 
z
M 3481 434 
Q 3481 -459 3084 -895 
Q 2688 -1331 1869 -1331 
Q 1566 -1331 1297 -1286 
Q 1028 -1241 775 -1147 
L 775 -588 
Q 1028 -725 1275 -790 
Q 1522 -856 1778 -856 
Q 2344 -856 2625 -561 
Q 2906 -266 2906 331 
L 2906 616 
Q 2728 306 2450 153 
Q 2172 0 1784 0 
Q 1141 0 747 490 
Q 353 981 353 1791 
Q 353 2603 747 3093 
Q 1141 3584 1784 3584 
Q 2172 3584 2450 3431 
Q 2728 3278 2906 2969 
L 2906 3500 
L 3481 3500 
L 3481 434 
z
" transform="scale(0.015625)"/>
      <path id="DejaVuSans-56" d="M 1831 0 
L 50 4666 
L 709 4666 
L 2188 738 
L 3669 4666 
L 4325 4666 
L 2547 0 
L 1831 0 
z
" transform="scale(0.015625)"/>
     </defs>
     <use xlink:href="#DejaVuSans-41"/>
     <use xlink:href="#DejaVuSans-6e" x="68.408203"/>
     <use xlink:href="#DejaVuSans-7a" x="131.787109"/>
     <use xlink:href="#DejaVuSans-61" x="184.277344"/>
     <use xlink:href="#DejaVuSans-68" x="245.556641"/>
     <use xlink:href="#DejaVuSans-6c" x="308.935547"/>
     <use xlink:href="#DejaVuSans-20" x="336.71875"/>
     <use xlink:href="#DejaVuSans-68" x="368.505859"/>
     <use xlink:href="#DejaVuSans-f6" x="431.884766"/>
     <use xlink:href="#DejaVuSans-63" x="493.066406"/>
     <use xlink:href="#DejaVuSans-68" x="548.046875"/>
     <use xlink:href="#DejaVuSans-73" x="611.425781"/>
     <use xlink:href="#DejaVuSans-74" x="663.525391"/>
     <use xlink:href="#DejaVuSans-65" x="702.734375"/>
     <use xlink:href="#DejaVuSans-72" x="764.257812"/>
     <use xlink:href="#DejaVuSans-20" x="805.371094"/>
     <use xlink:href="#DejaVuSans-31" x="837.158203"/>
     <use xlink:href="#DejaVuSans-34" x="900.78125"/>
     <use xlink:href="#DejaVuSans-20" x="964.404297"/>
     <use xlink:href="#DejaVuSans-54" x="996.191406"/>
     <use xlink:href="#DejaVuSans-61" x="1040.775391"/>
     <use xlink:href="#DejaVuSans-67" x="1102.054688"/>
     <use xlink:href="#DejaVuSans-65" x="1165.53125"/>
     <use xlink:href="#DejaVuSans-73" x="1227.054688"/>
     <use xlink:href="#DejaVuSans-72" x="1279.154297"/>
     <use xlink:href="#DejaVuSans-61" x="1320.267578"/>
     <use xlink:href="#DejaVuSans-74" x="1381.546875"/>
     <use xlink:href="#DejaVuSans-65" x="1420.755859"/>
     <use xlink:href="#DejaVuSans-6e" x="1482.279297"/>
     <use xlink:href="#DejaVuSans-20" x="1545.658203"/>
     <use xlink:href="#DejaVuSans-69" x="1577.445312"/>
     <use xlink:href="#DejaVuSans-6d" x="1605.228516"/>
     <use xlink:href="#DejaVuSans-20" x="1702.640625"/>
     <use xlink:href="#DejaVuSans-56" x="1734.427734"/>
     <use xlink:href="#DejaVuSans-65" x="1795.085938"/>
     <use xlink:href="#DejaVuSans-72" x="1856.609375"/>
     <use xlink:href="#DejaVuSans-67" x="1895.972656"/>
     <use xlink:href="#DejaVuSans-6c" x="1959.449219"/>
     <use xlink:href="#DejaVuSans-65" x="1987.232422"/>
     <use xlink:href="#DejaVuSans-69" x="2048.755859"/>
     <use xlink:href="#DejaVuSans-63" x="2076.539062"/>
     <use xlink:href="#DejaVuSans-68" x="2131.519531"/>
     <use xlink:href="#DejaVuSans-20" x="2194.898438"/>
     <use xlink:href="#DejaVuSans-7a" x="2226.685547"/>
     <use xlink:href="#DejaVuSans-75" x="2279.175781"/>
     <use xlink:href="#DejaVuSans-20" x="2342.554688"/>
     <use xlink:href="#DejaVuSans-61" x="2374.341797"/>
     <use xlink:href="#DejaVuSans-6c" x="2435.621094"/>
     <use xlink:href="#DejaVuSans-6c" x="2463.404297"/>
     <use xlink:href="#DejaVuSans-65" x="2491.1875"/>
     <use xlink:href="#DejaVuSans-6e" x="2552.710938"/>
     <use xlink:href="#DejaVuSans-20" x="2616.089844"/>
     <use xlink:href="#DejaVuSans-4b" x="2647.876953"/>
     <use xlink:href="#DejaVuSans-6f" x="2708.453125"/>
     <use xlink:href="#DejaVuSans-6e" x="2769.634766"/>
     <use xlink:href="#DejaVuSans-74" x="2833.013672"/>
     <use xlink:href="#DejaVuSans-69" x="2872.222656"/>
     <use xlink:href="#DejaVuSans-6e" x="2900.005859"/>
     <use xlink:href="#DejaVuSans-65" x="2963.384766"/>
     <use xlink:href="#DejaVuSans-6e" x="3024.908203"/>
     <use xlink:href="#DejaVuSans-74" x="3088.287109"/>
     <use xlink:href="#DejaVuSans-65" x="3127.496094"/>
     <use xlink:href="#DejaVuSans-6e" x="3189.019531"/>
    </g>
   </g>
  </g>
  <g id="text_22">
   <!-- Abbildung 3 -->
   <g transform="translate(22.603125 348.23625)scale(0.12 -0.12)">
    <defs>
     <path id="DejaVuSans-62" d="M 3116 1747 
Q 3116 2381 2855 2742 
Q 2594 3103 2138 3103 
Q 1681 3103 1420 2742 
Q 1159 2381 1159 1747 
Q 1159 1113 1420 752 
Q 1681 391 2138 391 
Q 2594 391 2855 752 
Q 3116 1113 3116 1747 
z
M 1159 2969 
Q 1341 3281 1617 3432 
Q 1894 3584 2278 3584 
Q 2916 3584 3314 3078 
Q 3713 2572 3713 1747 
Q 3713 922 3314 415 
Q 2916 -91 2278 -91 
Q 1894 -91 1617 61 
Q 1341 213 1159 525 
L 1159 0 
L 581 0 
L 581 4863 
L 1159 4863 
L 1159 2969 
z
" transform="scale(0.015625)"/>
     <path id="DejaVuSans-64" d="M 2906 2969 
L 2906 4863 
L 3481 4863 
L 3481 0 
L 2906 0 
L 2906 525 
Q 2725 213 2448 61 
Q 2172 -91 1784 -91 
Q 1150 -91 751 415 
Q 353 922 353 1747 
Q 353 2572 751 3078 
Q 1150 3584 1784 3584 
Q 2172 3584 2448 3432 
Q 2725 3281 2906 2969 
z
M 947 1747 
Q 947 1113 1208 752 
Q 1469 391 1925 391 
Q 2381 391 2643 752 
Q 2906 1113 2906 1747 
Q 2906 2381 2643 2742 
Q 2381 3103 1925 3103 
Q 1469 3103 1208 2742 
Q 947 2381 947 1747 
z
" transform="scale(0.015625)"/>
    </defs>
    <use xlink:href="#DejaVuSans-41"/>
    <use xlink:href="#DejaVuSans-62" x="68.408203"/>
    <use xlink:href="#DejaVuSans-62" x="131.884766"/>
    <use xlink:href="#DejaVuSans-69" x="195.361328"/>
    <use xlink:href="#DejaVuSans-6c" x="223.144531"/>
    <use xlink:href="#DejaVuSans-64" x="250.927734"/>
    <use xlink:href="#DejaVuSans-75" x="314.404297"/>
    <use xlink:href="#DejaVuSans-6e" x="377.783203"/>
    <use xlink:href="#DejaVuSans-67" x="441.162109"/>
    <use xlink:href="#DejaVuSans-20" x="504.638672"/>
    <use xlink:href="#DejaVuSans-33" x="536.425781"/>
   </g>
   <!--  -->
   <g transform="translate(22.603125 361.673625)scale(0.12 -0.12)"/>
   <!-- Amerika war 38 mal 14-Tagesraten-“Sieger" -->
   <g transform="translate(22.603125 375.111)scale(0.12 -0.12)">
    <defs>
     <path id="DejaVuSans-6b" d="M 581 4863 
L 1159 4863 
L 1159 1991 
L 2875 3500 
L 3609 3500 
L 1753 1863 
L 3688 0 
L 2938 0 
L 1159 1709 
L 1159 0 
L 581 0 
L 581 4863 
z
" transform="scale(0.015625)"/>
     <path id="DejaVuSans-77" d="M 269 3500 
L 844 3500 
L 1563 769 
L 2278 3500 
L 2956 3500 
L 3675 769 
L 4391 3500 
L 4966 3500 
L 4050 0 
L 3372 0 
L 2619 2869 
L 1863 0 
L 1184 0 
L 269 3500 
z
" transform="scale(0.015625)"/>
     <path id="DejaVuSans-2d" d="M 313 2009 
L 1997 2009 
L 1997 1497 
L 313 1497 
L 313 2009 
z
" transform="scale(0.015625)"/>
     <path id="DejaVuSans-201c" d="M 1203 3128 
L 544 3128 
L 544 3669 
L 1056 4666 
L 1459 4666 
L 1203 3669 
L 1203 3128 
z
M 2484 3128 
L 1825 3128 
L 1825 3669 
L 2338 4666 
L 2741 4666 
L 2484 3669 
L 2484 3128 
z
" transform="scale(0.015625)"/>
     <path id="DejaVuSans-53" d="M 3425 4513 
L 3425 3897 
Q 3066 4069 2747 4153 
Q 2428 4238 2131 4238 
Q 1616 4238 1336 4038 
Q 1056 3838 1056 3469 
Q 1056 3159 1242 3001 
Q 1428 2844 1947 2747 
L 2328 2669 
Q 3034 2534 3370 2195 
Q 3706 1856 3706 1288 
Q 3706 609 3251 259 
Q 2797 -91 1919 -91 
Q 1588 -91 1214 -16 
Q 841 59 441 206 
L 441 856 
Q 825 641 1194 531 
Q 1563 422 1919 422 
Q 2459 422 2753 634 
Q 3047 847 3047 1241 
Q 3047 1584 2836 1778 
Q 2625 1972 2144 2069 
L 1759 2144 
Q 1053 2284 737 2584 
Q 422 2884 422 3419 
Q 422 4038 858 4394 
Q 1294 4750 2059 4750 
Q 2388 4750 2728 4690 
Q 3069 4631 3425 4513 
z
" transform="scale(0.015625)"/>
     <path id="DejaVuSans-22" d="M 1147 4666 
L 1147 2931 
L 616 2931 
L 616 4666 
L 1147 4666 
z
M 2328 4666 
L 2328 2931 
L 1797 2931 
L 1797 4666 
L 2328 4666 
z
" transform="scale(0.015625)"/>
    </defs>
    <use xlink:href="#DejaVuSans-41"/>
    <use xlink:href="#DejaVuSans-6d" x="68.408203"/>
    <use xlink:href="#DejaVuSans-65" x="165.820312"/>
    <use xlink:href="#DejaVuSans-72" x="227.34375"/>
    <use xlink:href="#DejaVuSans-69" x="268.457031"/>
    <use xlink:href="#DejaVuSans-6b" x="296.240234"/>
    <use xlink:href="#DejaVuSans-61" x="352.400391"/>
    <use xlink:href="#DejaVuSans-20" x="413.679688"/>
    <use xlink:href="#DejaVuSans-77" x="445.466797"/>
    <use xlink:href="#DejaVuSans-61" x="527.253906"/>
    <use xlink:href="#DejaVuSans-72" x="588.533203"/>
    <use xlink:href="#DejaVuSans-20" x="629.646484"/>
    <use xlink:href="#DejaVuSans-33" x="661.433594"/>
    <use xlink:href="#DejaVuSans-38" x="725.056641"/>
    <use xlink:href="#DejaVuSans-20" x="788.679688"/>
    <use xlink:href="#DejaVuSans-6d" x="820.466797"/>
    <use xlink:href="#DejaVuSans-61" x="917.878906"/>
    <use xlink:href="#DejaVuSans-6c" x="979.158203"/>
    <use xlink:href="#DejaVuSans-20" x="1006.941406"/>
    <use xlink:href="#DejaVuSans-31" x="1038.728516"/>
    <use xlink:href="#DejaVuSans-34" x="1102.351562"/>
    <use xlink:href="#DejaVuSans-2d" x="1165.974609"/>
    <use xlink:href="#DejaVuSans-54" x="1192.933594"/>
    <use xlink:href="#DejaVuSans-61" x="1237.517578"/>
    <use xlink:href="#DejaVuSans-67" x="1298.796875"/>
    <use xlink:href="#DejaVuSans-65" x="1362.273438"/>
    <use xlink:href="#DejaVuSans-73" x="1423.796875"/>
    <use xlink:href="#DejaVuSans-72" x="1475.896484"/>
    <use xlink:href="#DejaVuSans-61" x="1517.009766"/>
    <use xlink:href="#DejaVuSans-74" x="1578.289062"/>
    <use xlink:href="#DejaVuSans-65" x="1617.498047"/>
    <use xlink:href="#DejaVuSans-6e" x="1679.021484"/>
    <use xlink:href="#DejaVuSans-2d" x="1742.400391"/>
    <use xlink:href="#DejaVuSans-201c" x="1778.484375"/>
    <use xlink:href="#DejaVuSans-53" x="1830.291016"/>
    <use xlink:href="#DejaVuSans-69" x="1893.767578"/>
    <use xlink:href="#DejaVuSans-65" x="1921.550781"/>
    <use xlink:href="#DejaVuSans-67" x="1983.074219"/>
    <use xlink:href="#DejaVuSans-65" x="2046.550781"/>
    <use xlink:href="#DejaVuSans-72" x="2108.074219"/>
    <use xlink:href="#DejaVuSans-22" x="2149.1875"/>
   </g>
  </g>
 </g>
 <defs>
  <clipPath id="pf183f16c99">
   <rect x="40.603125" y="22.318125" width="558" height="271.8"/>
  </clipPath>
 </defs>
</svg>
